#!OML:ASF H:\GeneralSubjects\Female5\Project 1\Capture day 1\Session 1\Female5.ASF
:FULLY-SPECIFIED
:DEGREES
326
root -12.9987 14.2274 1.34993 5.42296 80.8732 -15.3768
lowerback 17.7487 0.330723 -0.763996
upperback -8.5874 0.992303 3.29947
thorax -20.4523 0.952839 4.03236
lowerneck -22.3398 -7.78026 -7.11549
upperneck 23.0422 -10.1188 6.28063
head 11.9764 -4.31514 1.78991
rclavicle 4.07509e-015 -7.95139e-015
rhumerus -50.225 32.4745 -82.5708
rradius 69.1248
rwrist 0.748396
rhand -24.0243 -12.3296
rfingers 7.12502
rthumb 2.45389 -42.2952
lclavicle 4.07509e-015 -7.95139e-015
lhumerus -30.1929 -10.4618 81.8045
lradius 67.9822
lwrist -4.23409
lhand -33.4424 32.2185
lfingers 7.12502
lthumb -6.64126 62.0944
rfemur -46.7466 14.7466 28.7727
rtibia 52.4592
rfoot -28.6862 -5.16786
rtoes -17.5601
lfemur -50.8688 -5.35764 -22.2825
ltibia 61.0391
lfoot -22.6363 -25.6294
ltoes -11.8519
327
root -12.929 14.2885 1.26186 9.27006 76.6433 -10.9414
lowerback 17.4394 -0.134112 -1.37287
upperback -8.74268 0.175197 3.28026
thorax -20.383 0.678274 4.64145
lowerneck -22.6186 -8.14739 -7.64139
upperneck 24.3251 -10.736 6.98052
head 12.6671 -4.50549 2.01601
rclavicle -1.5207e-014 -4.05521e-014
rhumerus -51.1237 33.2832 -80.8729
rradius 73.7632
rwrist 0.485445
rhand -22.9048 -13.3008
rfingers 7.12502
rthumb 3.53504 -43.2512
lclavicle -1.5207e-014 -4.05521e-014
lhumerus -25.8643 -10.4089 79.9124
lradius 71.0249
lwrist -4.58626
lhand -34.4798 28.5469
lfingers 7.12502
lthumb -7.64266 58.3888
rfemur -46.126 16.3038 28.3175
rtibia 52.0953
rfoot -27.1643 -3.58705
rtoes -17.8826
lfemur -48.1597 -2.35108 -23.3676
ltibia 59.4196
lfoot -23.8145 -25.4218
ltoes -12.1399
328
root -12.8506 14.3884 1.1749 11.8157 72.4903 -7.90246
lowerback 17.0095 -0.744674 -2.12558
upperback -9.09783 -0.874106 3.24131
thorax -20.4532 0.330221 5.38538
lowerneck -22.4624 -8.24332 -7.77716
upperneck 25.6303 -10.9839 7.12566
head 13.2073 -4.58077 2.05685
rclavicle 5.11871e-015 -5.08889e-014
rhumerus -52.0895 34.3104 -79.1196
rradius 78.6188
rwrist -0.166506
rhand -24.6556 -11.6986
rfingers 7.12502
rthumb 1.84414 -41.6704
lclavicle 5.11871e-015 -5.08889e-014
lhumerus -21.6885 -10.6422 77.7552
lradius 74.2693
lwrist -4.90141
lhand -35.074 29.3756
lfingers 7.12502
lthumb -8.21617 59.1959
rfemur -45.3097 17.3874 27.6743
rtibia 51.0532
rfoot -25.1549 -2.20685
rtoes -18.5818
lfemur -45.4075 0.339864 -24.5119
ltibia 57.3356
lfoot -24.7758 -24.8068
ltoes -12.1972
329
root -12.7593 14.5313 1.09085 12.17 68.3041 -6.89479
lowerback 16.6527 -1.43989 -2.52573
upperback -9.68951 -1.90962 3.38671
thorax -20.3278 -0.0839661 5.94836
lowerneck -22.3087 -8.31882 -7.89019
upperneck 26.9997 -11.2825 7.4336
head 13.8084 -4.65057 2.15185
rclavicle 2.32081e-014 2.24627e-014
rhumerus -52.6428 35.6577 -77.4024
rradius 83.0255
rwrist -0.872803
rhand -25.8836 -10.9994
rfingers 7.12502
rthumb 0.658129 -40.9782
lclavicle 2.32081e-014 2.24627e-014
lhumerus -18.029 -10.8803 75.4003
lradius 78.0857
lwrist -5.43275
lhand -34.1394 26.5771
lfingers 7.12502
lthumb -7.31413 56.4307
rfemur -43.7441 18.2453 27.5742
rtibia 49.2177
rfoot -22.6877 0.39663
rtoes -14.0971
lfemur -42.2797 3.02608 -25.0807
ltibia 54.8075
lfoot -25.5947 -23.8244
ltoes -12.1058
330
root -12.6557 14.7241 1.03421 12.5743 63.5861 -5.87106
lowerback 16.0334 -1.98372 -3.4523
upperback -10.0492 -2.88988 3.44411
thorax -20.2221 -0.373781 6.85885
lowerneck -21.9072 -8.31155 -8.09894
upperneck 28.0746 -11.5287 8.01758
head 14.2756 -4.68474 2.39441
rclavicle -4.35711e-014 3.55825e-014
rhumerus -52.3838 37.1227 -75.6008
rradius 86.542
rwrist -1.41953
rhand -27.6599 -10.7307
rfingers 7.12502
rthumb -1.05741 -40.7078
lclavicle -4.35711e-014 3.55825e-014
lhumerus -15.3809 -10.0097 72.9093
lradius 81.871
lwrist -7.83121
lhand -35.9857 26.5689
lfingers 7.12502
lthumb -9.09601 56.3528
rfemur -42.1563 19.3302 27.3575
rtibia 46.9983
rfoot -19.7113 2.50887
rtoes -10.0684
lfemur -38.7586 5.97941 -25.4045
ltibia 51.6123
lfoot -26.0815 -22.3346
ltoes -12.297
331
root -12.5361 14.9787 0.960669 13.0067 58.8029 -4.60906
lowerback 15.6091 -2.53171 -4.13428
upperback -10.4606 -3.84751 3.32443
thorax -20.2993 -0.695492 7.41844
lowerneck -21.0427 -8.30035 -8.58953
upperneck 29.0161 -11.7738 8.80618
head 14.6382 -4.7423 2.78814
rclavicle -2.00043e-014 -7.30534e-015
rhumerus -51.9319 38.7818 -74.0481
rradius 89.4938
rwrist -2.39689
rhand -30.2148 -10.3595
rfingers 7.12502
rthumb -3.52494 -40.3101
lclavicle -2.00043e-014 -7.30534e-015
lhumerus -13.6576 -10.0353 70.4726
lradius 86.1978
lwrist -7.52378
lhand -35.4159 24.1451
lfingers 7.12502
lthumb -8.54618 53.9521
rfemur -39.7647 19.3527 27.1354
rtibia 43.8042
rfoot -15.988 4.96951
rtoes -7.05815
lfemur -34.5593 8.21474 -25.8718
ltibia 47.7255
lfoot -26.3105 -20.3606
ltoes -13.5122
332
root -12.3904 15.2869 0.89698 13.039 53.6151 -3.45955
lowerback 15.1521 -2.89215 -4.70299
upperback -10.7987 -4.54516 3.0244
thorax -20.3058 -0.945698 7.60303
lowerneck -20.1766 -8.3859 -8.75996
upperneck 30.3393 -12.1075 8.92535
head 15.112 -4.89021 2.85035
rclavicle -2.68911e-014 3.62285e-014
rhumerus -50.4486 39.8026 -72.9131
rradius 90.1144
rwrist -2.72798
rhand -31.9251 -8.0115
rfingers 7.12502
rthumb -5.17639 -37.9283
lclavicle -2.68911e-014 3.62285e-014
lhumerus -12.4627 -10.9553 67.707
lradius 90.1477
lwrist -7.6742
lhand -34.1707 25.0855
lfingers 7.12502
lthumb -7.34438 54.9381
rfemur -36.3911 19.0067 26.924
rtibia 39.4365
rfoot -10.9596 7.393
rtoes -4.14199
lfemur -29.6052 9.92512 -26.2445
ltibia 43.2697
lfoot -26.7677 -17.9887
ltoes -15.0674
